<?xml version="1.0" standalone="no"?><!DOCTYPE svg PUBLIC "-//W3C//DTD SVG 1.1//EN" "http://www.w3.org/Graphics/SVG/1.1/DTD/svg11.dtd"><svg t="1715337079679" class="icon" viewBox="0 0 1024 1024" version="1.1" xmlns="http://www.w3.org/2000/svg" p-id="2944" xmlns:xlink="http://www.w3.org/1999/xlink" width="128" height="128"><path d="M692.394667 222.72V67.925333l-454.485334 1.024c-15.530667 0-27.989333 12.458667-27.989333 27.989334v142.848h347.648c50.346667 0 91.136 40.789333 91.136 91.136v60.245333c0 50.346667-40.789333 91.136-91.136 91.136H209.92v443.562667c0 15.530667 12.458667 27.989333 27.989333 27.989333H887.466667c15.530667 0 27.989333-12.458667 27.989333-27.989333L913.066667 294.058667h-149.333334c-39.424 0-71.338667-31.914667-71.338666-71.338667zM366.250667 822.784H363.52c-7.850667 0-14.165333-6.314667-14.165333-14.165333V566.442667c0-7.850667 6.314667-14.165333 14.165333-14.165334h2.56c1.024 0 2.048 0.170667 3.072 0.341334h242.176c7.850667 0 14.165333 6.314667 14.165333 14.165333v2.56c0.170667 7.850667-6.314667 14.165333-14.165333 14.165333H380.416v225.109334c0 7.850667-6.314667 14.165333-14.165333 14.165333z m60.757333-27.136V655.36c0-11.264 9.216-20.48 20.48-20.48h221.184c11.264 0 20.48 9.216 20.48 20.48v140.458667c0 11.093333-9.216 20.309333-20.48 20.309333H447.488c-11.264 0-20.48-9.216-20.48-20.48z m339.968 86.357333v2.56c0 2.56-0.682667 4.778667-1.706667 6.826667-2.389333 4.608-7.168 7.68-12.629333 7.68h-2.56c-1.024 0-2.048-0.170667-3.072-0.341333H505.002667c-7.850667 0-14.165333-6.314667-14.165334-14.165334v-2.56c0-7.850667 6.314667-14.165333 14.165334-14.165333h230.912V642.730667c0-7.850667 6.314667-14.165333 14.165333-14.165334h2.56c7.850667 0 14.165333 6.314667 14.165333 14.165334v237.226666c0.170667 0.682667 0.170667 1.365333 0.170667 2.048z" fill="#7CCDFF" p-id="2945"></path><path d="M912.896 253.952l35.669333 36.693333zM913.066667 294.058667l2.389333 631.808c0 15.530667-12.458667 27.989333-27.989333 27.989333H237.909333c-15.530667 0-27.989333-12.458667-27.989333-27.989333V482.304h347.648c50.346667 0 91.136-40.789333 91.136-91.136v-60.245333c0-50.346667-40.789333-91.136-91.136-91.136H209.92V96.938667c0-15.530667 12.458667-27.989333 27.989333-27.989334l454.485334-1.024V27.989333H239.274667c-36.352 0-65.706667 29.354667-65.706667 65.706667v146.090667H158.72c-50.346667 0-91.136 40.789333-91.136 91.136v60.245333c0 50.346667 40.789333 91.136 91.136 91.136h14.848v446.976c0 36.352 29.354667 65.706667 65.706667 65.706667h646.826666c36.352 0 65.706667-29.354667 65.706667-65.706667V294.058667H913.066667z m-546.986667 116.906666l86.528-90.112h-78.165333v-33.28h136.192v31.061334L423.253333 409.770667h90.624v33.450666h-147.797333v-32.256zM226.986667 287.573333h126.293333v29.184c-10.922667 9.898667-20.138667 20.650667-27.477333 32.256-8.874667 13.994667-16.042667 29.696-21.162667 46.933334-4.096 13.312-6.826667 29.184-8.362667 47.445333h-43.178666c3.413333-25.429333 8.704-46.762667 16.042666-64 7.338667-17.237333 18.773333-35.669333 34.645334-55.296h-76.8v-36.522667z" fill="#4191FB" p-id="2946"></path><path d="M692.394667 67.925333v154.794667c0 39.424 31.914667 71.338667 71.338666 71.338667h188.245334l-3.413334-3.413334-35.669333-36.522666L692.394667 27.989333v39.936z" fill="#C7E2FF" p-id="2947"></path><path d="M269.141333 379.392c-7.338667 17.237333-12.629333 38.570667-16.042666 64h43.178666c1.536-18.261333 4.266667-34.133333 8.362667-47.445333 5.12-17.237333 12.288-32.938667 21.162667-46.933334 7.338667-11.605333 16.554667-22.357333 27.477333-32.256v-29.184h-126.293333v36.522667h76.8c-15.872 19.626667-27.306667 38.058667-34.645334 55.296zM513.877333 409.770667H423.253333l87.381334-91.136v-31.061334h-136.192V320.853333h78.165333l-86.528 90.112v32.256h147.797333z" fill="#FFFFFF" p-id="2948"></path><path d="M689.152 795.818667V655.36c0-11.264-9.216-20.48-20.48-20.48H447.488c-11.264 0-20.48 9.216-20.48 20.48v140.288c0 11.264 9.216 20.48 20.48 20.48h221.184c11.264 0 20.48-9.216 20.48-20.309333z" fill="#4191FB" p-id="2949"></path><path d="M611.328 583.509333c7.850667 0 14.336-6.314667 14.165333-14.165333v-2.56c0-7.850667-6.314667-14.165333-14.165333-14.165333H369.152c-1.024-0.170667-2.048-0.341333-3.072-0.341334H363.52c-7.850667 0-14.165333 6.314667-14.165333 14.165334V808.618667c0 7.850667 6.314667 14.165333 14.165333 14.165333h2.730667c7.850667 0 14.165333-6.314667 14.165333-14.165333V583.509333h230.912zM752.64 628.565333h-2.56c-7.850667 0-14.165333 6.314667-14.165333 14.165334v225.109333H505.002667c-7.850667 0-14.165333 6.314667-14.165334 14.165333v2.56c0 7.850667 6.314667 14.165333 14.165334 14.165334h242.005333c1.024 0.170667 2.048 0.341333 3.072 0.341333h2.56c5.461333 0 10.24-3.072 12.629333-7.68 1.024-2.048 1.706667-4.266667 1.706667-6.826667v-2.56c0-0.682667 0-1.365333-0.170667-2.048v-237.226666c0-7.850667-6.314667-14.165333-14.165333-14.165334z" fill="#4191FB" p-id="2950"></path></svg>