<?xml version="1.0" standalone="no"?><!DOCTYPE svg PUBLIC "-//W3C//DTD SVG 1.1//EN" "http://www.w3.org/Graphics/SVG/1.1/DTD/svg11.dtd"><svg t="1715337035249" class="icon" viewBox="0 0 1024 1024" version="1.1" xmlns="http://www.w3.org/2000/svg" p-id="1589" xmlns:xlink="http://www.w3.org/1999/xlink" width="128" height="128"><path d="M892.34 933.13H221.11V97h479.26l191.97 190.92z" fill="#7CCDFF" p-id="1590"></path><path d="M882.83 275.27l2.41 617.71c0 14.21-11.52 25.72-25.72 25.72H262.45c-14.21 0-25.72-11.52-25.72-25.72V131.02c0-14.21 11.52-25.72 25.72-25.72l453.58-1-35.82-36.71H263.69c-33.35 0-60.39 27.04-60.39 60.39v768.06c0 33.35 27.04 60.39 60.39 60.39h594.58c33.35 0 60.39-27.04 60.39-60.39V311.99l-35.83-36.72z" fill="#4191FB" p-id="1591"></path><path d="M680.21 246.61c0 36.24 29.38 65.61 65.61 65.61h173.06L680.21 67.58v179.03z" fill="#C7E2FF" p-id="1592"></path><path d="M624.66 485.26H159.31c-29.5 0-53.42-23.92-53.42-53.42V315.71c0-29.5 23.92-53.42 53.42-53.42h465.35c29.5 0 53.42 23.92 53.42 53.42v116.13c0 29.5-23.92 53.42-53.42 53.42zM760.79 666.55H361.18c-15.75 0-28.52-12.77-28.52-28.52s12.77-28.52 28.52-28.52h399.61c15.75 0 28.52 12.77 28.52 28.52s-12.77 28.52-28.52 28.52zM760.79 786.55H361.18c-15.75 0-28.52-12.77-28.52-28.52s12.77-28.52 28.52-28.52h399.61c15.75 0 28.52 12.77 28.52 28.52s-12.77 28.52-28.52 28.52z" fill="#4191FB" p-id="1593"></path><path d="M150.11 309.62h52.58c10.36 0 18.74 1.73 25.12 5.19 6.38 3.46 11.65 8.43 15.82 14.9 4.17 6.47 7.19 14 9.06 22.59 1.88 8.59 2.81 17.69 2.81 27.3 0 15.06-1.39 26.74-4.18 35.04s-6.65 15.25-11.6 20.86c-4.95 5.61-10.26 9.34-15.94 11.2-7.76 2.56-14.79 3.84-21.1 3.84H150.1V309.62z m35.39 31.91v76.99h8.67c7.4 0 12.66-1.01 15.78-3.03 3.13-2.02 5.57-5.54 7.34-10.57 1.77-5.03 2.66-13.18 2.66-24.46 0-14.93-1.98-25.15-5.94-30.66-3.96-5.51-10.52-8.27-19.69-8.27h-8.82zM269.65 380.17c0-23 5.21-40.91 15.63-53.73 10.42-12.81 24.92-19.22 43.52-19.22 19.06 0 33.75 6.3 44.07 18.89 10.31 12.59 15.47 30.23 15.47 52.91 0 16.47-2.25 29.97-6.76 40.51s-11.02 18.74-19.53 24.61-19.13 8.79-31.84 8.79c-12.92 0-23.61-2.53-32.07-7.59-8.46-5.06-15.33-13.07-20.59-24.03-5.28-10.96-7.9-24.67-7.9-41.14z m35.39 0.19c0 14.23 2.15 24.45 6.45 30.66 4.3 6.22 10.14 9.32 17.54 9.32 7.6 0 13.49-3.04 17.66-9.13 4.17-6.09 6.25-17.01 6.25-32.78 0-13.26-2.18-22.96-6.52-29.08-4.35-6.12-10.25-9.18-17.7-9.18-7.14 0-12.87 3.11-17.19 9.32-4.33 6.23-6.49 16.52-6.49 30.87zM483.64 392.86l31.02 11.53c-2.08 10.7-5.37 19.64-9.84 26.82-4.48 7.18-10.04 12.59-16.68 16.24-6.64 3.65-15.09 5.48-25.35 5.48-12.45 0-22.62-2.23-30.51-6.68-7.89-4.45-14.7-12.28-20.43-23.48-5.73-11.21-8.59-25.55-8.59-43.03 0-23.31 5.04-41.22 15.12-53.74 10.08-12.52 24.34-18.78 42.78-18.78 14.43 0 25.77 3.59 34.03 10.77 8.25 7.18 14.39 18.2 18.4 33.06l-31.25 8.55c-1.09-4.29-2.24-7.43-3.44-9.42-1.98-3.33-4.4-5.89-7.27-7.69-2.87-1.79-6.07-2.69-9.61-2.69-8.02 0-14.17 3.97-18.44 11.9-3.23 5.89-4.84 15.14-4.84 27.74 0 15.62 1.93 26.32 5.78 32.11 3.85 5.79 9.27 8.69 16.25 8.69 6.77 0 11.89-2.34 15.35-7.02 3.45-4.66 5.96-11.46 7.52-20.36zM524.04 309.62h38.99l20.27 43.35 19.73-43.35h38.6l-35.65 68.24 39.01 72.66h-39.77l-22.62-45.27-22.62 45.27h-39.53l39.51-73.43-35.92-67.47z" fill="#FFFFFF" p-id="1594"></path></svg>