<?xml version="1.0" standalone="no"?><!DOCTYPE svg PUBLIC "-//W3C//DTD SVG 1.1//EN" "http://www.w3.org/Graphics/SVG/1.1/DTD/svg11.dtd"><svg t="1715494250749" class="icon" viewBox="0 0 1024 1024" version="1.1" xmlns="http://www.w3.org/2000/svg" p-id="5723" xmlns:xlink="http://www.w3.org/1999/xlink" width="128" height="128"><path d="M536.333474 724.156632a26.785684 26.785684 0 0 1-28.348632-28.348632V109.082947a28.348632 28.348632 0 1 1 56.589474 0v589.554527a27.971368 27.971368 0 0 1-28.240842 25.519158z" fill="#208BB5" p-id="5724"></path><path d="M536.333474 797.857684l-269.258106-246.595368a28.133053 28.133053 0 0 1 36.837053-42.522948l229.48379 212.533895 229.591578-212.587789a28.133053 28.133053 0 0 1 36.837053 42.522947z" fill="#208BB5" p-id="5725"></path><path d="M833.940211 959.299368H235.870316a28.348632 28.348632 0 0 1 0-56.589473h598.069895a28.348632 28.348632 0 1 1 0 56.589473z" fill="#83D2EA" p-id="5726"></path></svg>