<?xml version="1.0" standalone="no"?><!DOCTYPE svg PUBLIC "-//W3C//DTD SVG 1.1//EN" "http://www.w3.org/Graphics/SVG/1.1/DTD/svg11.dtd"><svg t="1715487656215" class="icon" viewBox="0 0 1024 1024" version="1.1" xmlns="http://www.w3.org/2000/svg" p-id="1601" xmlns:xlink="http://www.w3.org/1999/xlink" width="128" height="128"><path d="M620.9 67.2H236.5c-30.3 0-54.9 25-54.9 55.9v782.7c0 30.9 24.6 55.9 54.9 55.9h549c30.3 0 54.9-25 54.9-55.9v-615L620.9 67.2z" fill="#53DD76" p-id="1602"></path><path d="M802 925.9H220.1V109.7h379.6v218.9H802z" fill="#FFFFFF" p-id="1603"></path><path d="M802 922.6H220.1V106.4h379.6v218.8H802z" fill="#5BE873" p-id="1604"></path><path d="M404.1 583.8v26.9H287.5v60h109.6v26.9H287.5v65.6H409V790.1H256V583.8h148.1zM472.2 583.8V763.1h113.4v26.9H441V583.8h31.2zM636.2 583.8l50.2 74.5 50.2-74.5h38.5l-69.9 99.6L780 789.9h-38.5l-55.1-81.7-55.1 81.7h-38.5L667 683.3l-69.2-99.6h38.4z" fill="#FFFFFF" p-id="1605"></path></svg>