<?xml version="1.0" standalone="no"?><!DOCTYPE svg PUBLIC "-//W3C//DTD SVG 1.1//EN" "http://www.w3.org/Graphics/SVG/1.1/DTD/svg11.dtd"><svg t="1715487649031" class="icon" viewBox="0 0 1024 1024" version="1.1" xmlns="http://www.w3.org/2000/svg" p-id="1271" xmlns:xlink="http://www.w3.org/1999/xlink" width="128" height="128"><path d="M620.9 67.2H236.5c-30.3 0-54.9 25-54.9 55.9v782.7c0 30.9 24.6 55.9 54.9 55.9h549c30.3 0 54.9-25 54.9-55.9v-615L620.9 67.2z" fill="#FFC639" p-id="1272"></path><path d="M802 925.9H220.1V109.7h379.6v218.9H802z" fill="#FFFFFF" p-id="1273"></path><path d="M802 922.6H220.1V106.4h379.6v218.8H802z" fill="#FFD773" p-id="1274"></path><path d="M372.6 606.4v134.1c0 22.2-4.7 38.8-13.8 50-10.5 11.7-27.1 17.7-50 17.7-19.7 0-34.6-5.5-44.6-16.4-10.5-11.1-15.8-26.1-15.8-45.5v-6.7h30.3v6.3c0 23.5 10.2 35.5 30.8 35.5 11.7 0 20-3.6 25.2-10.2 5-6.7 7.8-17.2 7.8-31.8V606.2h30.1v0.2zM493.5 606.4c47.1 0 70.6 20 70.6 60.2 0 40.4-23.9 60.7-71.3 60.7h-51.3v77.1h-30.2v-198h82.2z m-51.9 95.1h49.3c14.9 0 25.8-2.8 32.8-8.3 6.7-5.5 10.2-14.4 10.2-26.6 0-12.2-3.6-21.1-10.5-26.1-7-5.5-17.7-8.3-32.5-8.3h-49.3v69.3zM737.7 619.7c14.1 11.1 23 27.4 26.6 49.5h-30.5c-2.8-13.3-8.9-23.2-18.3-29.9-9.4-7-22.2-10.2-37.7-10.2-19.1 0-34.4 6.3-45.8 19.7-12.2 13.8-18 33-18 57.3 0 23.9 5.2 42.2 16.4 54.9 11.7 13.8 29.9 20.8 54.7 20.8 9.7 0 18.8-1.3 27.4-3.6 8.3-2.3 15.6-5.5 22.2-9.7v-43H680v-25.8h84.9v83.1c-10.2 8.1-22.2 14.1-35.7 18.5-14.4 4.4-30.2 6.7-47.4 6.7-31.6 0-56-9.9-73.5-29.9-16.4-18.5-24.4-42.7-24.4-72.1 0-29.7 8.1-54.1 24.4-73.2 17.2-20.5 40.4-30.5 69.6-30.5 25.2 0.2 45.2 5.7 59.8 17.4z" fill="#FFFFFF" p-id="1275"></path></svg>