<?xml version="1.0" standalone="no"?><!DOCTYPE svg PUBLIC "-//W3C//DTD SVG 1.1//EN" "http://www.w3.org/Graphics/SVG/1.1/DTD/svg11.dtd"><svg t="1715337111575" class="icon" viewBox="0 0 1024 1024" version="1.1" xmlns="http://www.w3.org/2000/svg" p-id="3949" xmlns:xlink="http://www.w3.org/1999/xlink" width="128" height="128"><path d="M923.136 969.557333H193.024v-909.653333h521.386667l208.725333 207.701333z" fill="#7CCDFF" p-id="3950"></path><path d="M912.896 253.952l2.56 671.914667c0 15.530667-12.458667 27.989333-27.989333 27.989333H237.909333c-15.530667 0-27.989333-12.458667-27.989333-27.989333V96.938667c0-15.530667 12.458667-27.989333 27.989333-27.989334l493.397334-1.024-38.912-39.936H239.274667c-36.352 0-65.706667 29.354667-65.706667 65.706667v835.584c0 36.352 29.354667 65.706667 65.706667 65.706667h646.826666c36.352 0 65.706667-29.354667 65.706667-65.706667V293.888l-38.912-39.936z" fill="#4191FB" p-id="3951"></path><path d="M692.394667 222.72c0 39.424 31.914667 71.338667 71.338666 71.338667h188.245334L692.394667 27.989333v194.730667z" fill="#C7E2FF" p-id="3952"></path><path d="M557.568 482.304H158.72c-50.346667 0-91.136-40.789333-91.136-91.136v-60.245333c0-50.346667 40.789333-91.136 91.136-91.136h398.848c50.346667 0 91.136 40.789333 91.136 91.136v60.245333c0 50.346667-40.789333 91.136-91.136 91.136z" fill="#4191FB" p-id="3953"></path><path d="M125.098667 287.573333h63.317333l24.405333 94.72 24.234667-94.72H300.373333v155.818667h-39.424v-118.784L230.4 443.221333h-35.669333l-30.378667-118.784v118.784h-39.253333v-155.648zM330.752 287.573333h80.042667c17.408 0 30.549333 4.096 39.082666 12.458667 8.704 8.362667 12.970667 20.138667 12.970667 35.328 0 15.701333-4.778667 27.989333-14.165333 36.864-9.386667 8.874667-23.893333 13.312-43.349334 13.312h-26.282666v57.856h-48.298667v-155.818667z m48.298667 66.389334h11.776c9.216 0 15.872-1.536 19.626666-4.778667 3.754667-3.242667 5.632-7.338667 5.632-12.458667 0-4.949333-1.706667-9.045333-4.949333-12.458666s-9.386667-5.12-18.432-5.12h-13.653333v34.816zM555.349333 414.208h-78.848v-35.669333l78.848-93.696h37.717334V380.586667H612.693333v33.621333h-19.626666v29.184h-37.717334v-29.184z m0-33.621333v-48.981334L513.706667 380.586667h41.642666z" fill="#FFFFFF" p-id="3954"></path><path d="M821.589333 755.2H210.944c-15.701333 0-28.330667-12.8-28.330667-28.330667v-5.290666c0-15.701333 12.8-28.330667 28.330667-28.330667h610.645333c15.701333 0 28.330667 12.8 28.330667 28.330667v5.290666c0.170667 15.530667-12.629333 28.330667-28.330667 28.330667z" fill="#4191FB" p-id="3955"></path><path d="M648.704 724.138667m-76.629333 0a76.629333 76.629333 0 1 0 153.258666 0 76.629333 76.629333 0 1 0-153.258666 0Z" fill="#4191FB" p-id="3956"></path></svg>