<?xml version="1.0" standalone="no"?><!DOCTYPE svg PUBLIC "-//W3C//DTD SVG 1.1//EN" "http://www.w3.org/Graphics/SVG/1.1/DTD/svg11.dtd"><svg t="1715487658736" class="icon" viewBox="0 0 1024 1024" version="1.1" xmlns="http://www.w3.org/2000/svg" p-id="1766" xmlns:xlink="http://www.w3.org/1999/xlink" width="128" height="128"><path d="M620.9 67.2H236.5c-30.3 0-54.9 25-54.9 55.9v782.7c0 30.9 24.6 55.9 54.9 55.9h549c30.3 0 54.9-25 54.9-55.9v-615L620.9 67.2z" fill="#FF7357" p-id="1767"></path><path d="M802 925.9H220.1V109.7h379.6v218.9H802z" fill="#FFFFFF" p-id="1768"></path><path d="M802 922.6H220.1V106.4h379.6v218.8H802z" fill="#FF917B" p-id="1769"></path><path d="M340.8 597.6c47.7 0 71.4 20.2 71.4 60.8 0 40.9-24.2 61.4-72.1 61.4h-51.9v78h-30.6V597.6h83.2z m-52.4 96.2h49.8c15.1 0 26.1-2.9 33.1-8.4 6.8-5.6 10.3-14.5 10.3-26.9 0-12.4-3.7-21.3-10.6-26.3-7.1-5.6-17.9-8.4-32.9-8.4h-49.8v70zM523.6 597.6c47.7 0 71.4 20.2 71.4 60.8 0 40.9-24.2 61.4-72.1 61.4H471v78h-30.6V597.6h83.2z m-52.4 96.2H521c15.1 0 26.1-2.9 33.1-8.4 6.8-5.6 10.3-14.5 10.3-26.9 0-12.4-3.7-21.3-10.6-26.3-7.1-5.6-17.9-8.4-32.9-8.4h-49.8v70h0.1zM772 597.6v26.1h-66.7v174.1H675V623.7h-67v-26.1h164z" fill="#FFFFFF" p-id="1770"></path></svg>