<?xml version="1.0" standalone="no"?><!DOCTYPE svg PUBLIC "-//W3C//DTD SVG 1.1//EN" "http://www.w3.org/Graphics/SVG/1.1/DTD/svg11.dtd"><svg t="1715337137579" class="icon" viewBox="0 0 1024 1024" version="1.1" xmlns="http://www.w3.org/2000/svg" p-id="4464" xmlns:xlink="http://www.w3.org/1999/xlink" width="128" height="128"><path d="M892.34 933.13H221.11V97h479.26l191.97 190.92z" fill="#7CCDFF" p-id="4465"></path><path d="M882.83 275.27l2.41 617.71c0 14.21-11.52 25.72-25.72 25.72H262.45c-14.21 0-25.72-11.52-25.72-25.72V131.02c0-14.21 11.52-25.72 25.72-25.72l453.58-1-35.82-36.71H263.69c-33.35 0-60.39 27.04-60.39 60.39v768.06c0 33.35 27.04 60.39 60.39 60.39h594.58c33.35 0 60.39-27.04 60.39-60.39V311.99l-35.83-36.72z" fill="#4191FB" p-id="4466"></path><path d="M680.21 246.61c0 36.24 29.38 65.61 65.61 65.61h173.06L680.21 67.58v179.03z" fill="#C7E2FF" p-id="4467"></path><path d="M586.66 485.26H159.31c-29.5 0-53.42-23.92-53.42-53.42V315.71c0-29.5 23.92-53.42 53.42-53.42h427.35c29.5 0 53.42 23.92 53.42 53.42v116.13c0 29.5-23.92 53.42-53.42 53.42zM547.89 559.15c-80.21 0-145.22 65.02-145.22 145.22S467.68 849.6 547.89 849.6s145.22-65.02 145.22-145.22H547.89V559.15z" fill="#4191FB" p-id="4468"></path><path d="M580.31 526.73v145.22h145.22c0-80.2-65.02-145.22-145.22-145.22z" fill="#4191FB" p-id="4469"></path><path d="M149.48 306.62h58.83c12.81 0 22.41 3.75 28.79 11.25 6.38 7.5 9.57 18.17 9.57 32.01 0 14.23-3.48 25.34-10.43 33.35-6.95 8.01-17.57 12.01-31.84 12.01h-19.38v52.29h-35.55V306.62z m35.55 60.07h8.67c6.82 0 11.61-1.46 14.38-4.37 2.76-2.92 4.14-6.65 4.14-11.2 0-4.42-1.2-8.17-3.59-11.25-2.4-3.08-6.9-4.61-13.52-4.61h-10.08v31.43zM265.04 306.62h58.83c12.81 0 22.41 3.75 28.79 11.25 6.38 7.5 9.57 18.17 9.57 32.01 0 14.23-3.48 25.34-10.43 33.35-6.95 8.01-17.57 12.01-31.84 12.01h-19.38v52.29h-35.55V306.62z m35.54 60.07h8.67c6.82 0 11.61-1.46 14.38-4.37 2.76-2.92 4.14-6.65 4.14-11.2 0-4.42-1.2-8.17-3.59-11.25-2.4-3.08-6.9-4.61-13.52-4.61h-10.08v31.43zM372.7 306.62h107.58v34.79h-36.1v106.11h-35.39V341.41h-36.1v-34.79zM488.49 306.62h38.99l20.27 43.35 19.73-43.35h38.6l-35.65 68.24 39.01 72.66h-39.77l-22.62-45.27-22.62 45.27H484.9l39.51-73.43-35.92-67.47z" fill="#FFFFFF" p-id="4470"></path></svg>